<svg width="60" height="51" viewBox="0 0 60 51" fill="none" xmlns="http://www.w3.org/2000/svg">
<path d="M28.1986 14.7249H34.8906V10.7097H28.1986V14.7249ZM36.229 21.463H42.921V16.0632H36.229V21.463ZM20.1221 14.7249H26.8141V10.7097H20.1221V14.7249ZM36.229 14.7249H42.921V10.7097H36.229V14.7249ZM28.1986 21.463H34.8906V16.0632H28.1986V21.463ZM20.8144 41.5851C18.2299 41.5851 16.1069 43.708 16.1069 46.2925C16.1069 48.877 18.2299 51 20.8144 51C23.3989 51 25.5218 48.877 25.5218 46.2925C25.5218 43.708 23.3989 41.5851 20.8144 41.5851ZM46.3362 41.5851C43.7517 41.5851 41.6287 43.708 41.6287 46.2925C41.6287 48.877 43.7517 51 46.3362 51C48.9207 51 51.0437 48.877 51.0437 46.2925C50.9975 43.708 48.9207 41.5851 46.3362 41.5851ZM50.5821 16.0632H44.3055V21.4168H48.7822L50.5821 16.0632ZM50.9975 14.7249L52.3359 10.7097H44.3055V14.7249H50.9975ZM20.1221 21.463H26.8141V16.0632H20.1221V21.463ZM28.1986 26.8166H34.8906V22.8014H28.1986V26.8166ZM36.229 26.8166H42.921V22.8014H36.229V26.8166ZM48.3207 22.8014H44.3055V26.8166H46.9823L48.3669 22.6629L48.3207 22.8014ZM15.23 30.8779H49.6591L59.074 6.69448H10.6149L9.46107 1.06398C9.32262 0.41786 8.7688 0.00249603 8.16883 0.00249603H1.3384C0.599971 -0.0436556 0 0.556315 0 1.29474C0 2.03317 0.599971 2.63314 1.3384 2.63314H7.10734L14.4454 39.139C14.5839 39.7852 15.1377 40.2005 15.7377 40.2005H52.3359V37.5237H16.7992L15.23 30.8779ZM14.7685 28.155L10.7533 9.37127H18.8298H20.1682H26.8602H28.1986H34.8906H36.229H42.921H44.3055H55.0588L48.3669 28.155H14.7685ZM20.1221 26.8166H26.8141V22.8014H20.1221V26.8166ZM15.23 21.463H18.8298V16.0632H14.307L15.23 21.463ZM16.1069 26.8166H18.7837V22.8014H15.4146L16.1069 26.8166ZM14.1224 14.9556L14.0762 14.7249H18.7837V10.7097H13.4301L14.1224 14.9556Z" fill="white"/>
</svg>
